<?xml version="1.0"?>
<svg id="Capa_2" data-name="Capa 2" xmlns="http://www.w3.org/2000/svg" viewBox="0 0 724.94 190.22">
  <defs>
    
  </defs>
  <g id="Capa_1-2" data-name="Capa 1">
    <g>
      <path class="cls-1" d="M701.23,27.99c0-6.71,5.46-11.67,11.9-11.67s11.82,4.95,11.82,11.67-5.46,11.74-11.82,11.74-11.9-4.95-11.9-11.74ZM713.12,37.78c5.28,0,9.47-4.15,9.47-9.79s-4.19-9.71-9.47-9.71-9.54,4.18-9.54,9.71,4.16,9.79,9.54,9.79ZM710.64,34.78h-2.05v-13.5h5.15c3.19,0,4.76,1.18,4.76,3.84,0,2.41-1.52,3.46-3.51,3.71l3.84,5.95h-2.28l-3.56-5.86h-2.35v5.86ZM713.1,27.19c1.73,0,3.27-.12,3.27-2.21,0-1.67-1.53-1.98-2.94-1.98h-2.79v4.19h2.45Z"></path>
      <g>
        <polygon class="cls-1" points="123.07 187.95 98.67 144.44 186.83 144.44 142.56 50.65 77.65 187.95 0 187.95 101.67 2.62 183.46 2.62 284.37 187.95 123.07 187.95"></polygon>
        <path class="cls-1" d="M284.75,80.29h96.78c24.4,0,34.14-1.51,34.14-18.76s-7.87-18.39-33.02-18.39h-98.29l-21.77-40.51h136.57c64.55,0,88.54,28.15,88.54,58.15s-22.13,60.77-93.02,60.77h-32.29v66.4h-78.03v-107.66h.38Z"></path>
        <path class="cls-1" d="M689.94,174.08c-23.26,10.88-52.14,16.14-82.92,16.14-93.04,0-124.93-51.78-124.93-94.55,0-54.01,47.27-95.66,128.69-95.66,29.63,0,55.51,4.49,77.26,12.75v53.65c-22.5-12-42.01-17.26-64.9-17.26-39.02,0-70.9,17.63-70.9,45.76s32.64,45.79,71.66,45.79c22.53,0,40.9-4.5,66.04-16.14v49.52Z"></path>
      </g>
    </g>
  </g>
</svg>