<?xml version="1.0"?>
<svg id="Capa_2" data-name="Capa 2" xmlns="http://www.w3.org/2000/svg" viewBox="0 0 435.5 186.04">
  <defs>
    
  </defs>
  <g id="Capa_1-2" data-name="Capa 1">
    <g>
      <path class="cls-1" d="M51.65,115.49c-.4-15.38,1.62-30.77,6.08-46.16,1.73-5.97,3.45-12.99,7.71-17.71,3.69-4.08,8.86-6.1,15.87-6.17h117.34L164.62.04l-93.68-.04C30.28,2.03,7.03,33,1.18,92.89c-5.84,59.89,10.1,90.94,47.84,93.16h96.49l44.97-48.5h-119.61c-14.13-.02-18.86-8.46-19.22-22.06"></path>
      <polygon class="cls-1" points="351.8 90 435.5 0 368.17 0 322.23 49.4 284.69 0 214.25 0 282.75 91.86 195.17 186.04 262.5 186.04 312.21 132.58 351.94 186.04 422.37 186.04 351.8 90"></polygon>
    </g>
  </g>
</svg>